<svg width="1417" height="1068" viewBox="0 0 1417 1068" fill="none" xmlns="http://www.w3.org/2000/svg">
<g clip-path="url(#clip0_0_693)">
<path d="M1108.67 570.826C1099.98 605.129 1075.67 633.789 1039.07 656.233C1002.46 678.679 953.589 694.887 895.849 704.283C780.369 723.073 629.52 714.595 470.684 674.373C311.848 634.15 175.145 569.81 82.5274 498.322C36.2176 462.578 0.949043 425.062 -20.5614 387.899C-42.0703 350.74 -49.8077 313.964 -41.1211 279.661C-32.4345 245.359 -8.12652 216.698 28.476 194.254C65.0813 171.809 113.955 155.6 171.695 146.205C287.175 127.414 438.024 135.892 596.86 176.115C755.696 216.337 892.399 280.677 985.017 352.165C1031.33 387.909 1066.6 425.426 1088.11 462.588C1109.61 499.748 1117.35 536.523 1108.67 570.826Z" stroke="url(#paint0_linear_0_693)"/>
<path d="M1369.27 636.82C1356.63 686.733 1321.27 728.418 1268.05 761.049C1214.83 793.681 1143.79 817.238 1059.88 830.892C892.06 858.199 672.855 845.877 442.054 787.431C211.254 728.984 12.6035 635.491 -121.994 531.601C-189.294 479.656 -240.56 425.126 -271.833 371.098C-303.104 317.073 -314.368 263.58 -301.728 213.667C-289.088 163.754 -253.722 122.069 -200.507 89.4388C-147.289 56.8067 -76.2484 33.2494 7.66296 19.5956C175.484 -7.71156 394.689 4.61041 625.49 63.0569C856.29 121.503 1054.94 214.996 1189.54 318.886C1256.84 370.831 1308.1 425.361 1339.38 479.389C1370.65 533.414 1381.91 586.908 1369.27 636.82Z" stroke="url(#paint1_linear_0_693)"/>
<path d="M1686.38 717.123C1668.93 786.03 1620.11 843.564 1546.68 888.589C1473.25 933.617 1375.23 966.116 1259.48 984.951C1027.97 1022.62 725.585 1005.62 407.217 925.001C88.8488 844.379 -185.179 715.413 -370.858 572.096C-463.698 500.437 -534.431 425.205 -577.582 350.655C-620.732 276.107 -636.287 202.272 -618.837 133.365C-601.388 64.4573 -552.566 6.92394 -479.136 -38.1017C-405.704 -83.129 -307.69 -115.628 -191.933 -134.464C39.5775 -172.134 341.959 -155.135 660.327 -74.5132C978.695 6.10825 1252.72 135.075 1438.4 278.392C1531.24 350.051 1601.97 425.283 1645.13 499.833C1688.28 574.38 1703.83 648.216 1686.38 717.123Z" stroke="url(#paint2_linear_0_693)"/>
</g>
<defs>
<linearGradient id="paint0_linear_0_693" x1="-1.30408" y1="259.796" x2="994.755" y2="673.025" gradientUnits="userSpaceOnUse">
<stop stop-color="#484848"/>
<stop offset="0.491388" stop-color="#484848" stop-opacity="0.36"/>
<stop offset="1" stop-color="#484848"/>
</linearGradient>
<linearGradient id="paint1_linear_0_693" x1="-243.657" y1="184.859" x2="1203.55" y2="785.253" gradientUnits="userSpaceOnUse">
<stop stop-color="#484848"/>
<stop offset="0.491388" stop-color="#484848" stop-opacity="0.36"/>
<stop offset="1" stop-color="#484848"/>
</linearGradient>
<linearGradient id="paint2_linear_0_693" x1="-538.555" y1="93.6755" x2="1457.61" y2="921.813" gradientUnits="userSpaceOnUse">
<stop stop-color="#484848"/>
<stop offset="0.491388" stop-color="#484848" stop-opacity="0.36"/>
<stop offset="1" stop-color="#484848"/>
</linearGradient>
<clipPath id="clip0_0_693">
<rect width="1503" height="1068" fill="white" transform="translate(-86)"/>
</clipPath>
</defs>
</svg>
