<svg width="40" height="40" viewBox="0 0 40 40" fill="none" xmlns="http://www.w3.org/2000/svg">
<path d="M6.66663 6.66666L33.3333 33.3333" stroke="white" stroke-width="3" stroke-linecap="round" stroke-linejoin="round"/>
<path d="M25.8241 14.9475L22.9029 12.0264C23.5345 10.4185 23.9556 8.70502 24.1326 6.91968C24.2374 5.86297 25.0881 5 26.15 5H28.0727C32.3203 5 35.8622 8.4968 34.8143 12.6131C34.0884 15.4645 32.9642 18.1568 31.5044 20.6273M21.3152 21.3146C19.474 23.1557 17.3232 24.6872 14.9475 25.8241L12.0264 22.9029C10.4185 23.5345 8.70501 23.9556 6.91968 24.1326C5.86297 24.2374 5 25.0881 5 26.15V28.0727C5 32.3203 8.49681 35.8622 12.6131 34.8143C18.0499 33.4302 22.9083 30.5981 26.7534 26.7528" stroke="white" stroke-width="3" stroke-linecap="round" stroke-linejoin="round"/>
</svg>
