<svg width="26" height="26" viewBox="0 0 26 26" fill="none" xmlns="http://www.w3.org/2000/svg">
<path d="M23.8334 4.34309C22.8902 4.99559 21.846 5.49465 20.7409 5.82105C20.1478 5.15211 19.3595 4.67799 18.4827 4.4628C17.6059 4.24761 16.6829 4.30174 15.8384 4.61787C14.994 4.93399 14.2689 5.49686 13.7613 6.23035C13.2536 6.96384 12.9879 7.83255 13 8.719V9.68499C11.2693 9.729 9.55431 9.35251 8.00783 8.58902C6.46136 7.82554 5.13139 6.69877 4.13638 5.30907C4.13638 5.30907 0.19699 14.0029 9.06063 17.8669C7.03236 19.2173 4.61616 19.8944 2.16669 19.7989C11.0303 24.6288 21.8637 19.7989 21.8637 8.69002C21.8628 8.42095 21.8364 8.15254 21.7849 7.88825C22.79 6.91598 23.4993 5.68843 23.8334 4.34309Z" stroke="#EEF4FF" stroke-width="2" stroke-linecap="round" stroke-linejoin="round"/>
</svg>
