<svg width="185" height="31" viewBox="0 0 185 31" fill="none" xmlns="http://www.w3.org/2000/svg">
<g clip-path="url(#clip0_2079_144)">
<path fill-rule="evenodd" clip-rule="evenodd" d="M31 15.5C31 24.0604 24.0604 31 15.5 31C6.93959 31 0 24.0604 0 15.5C0 6.93959 6.93959 0 15.5 0C24.0604 0 31 6.93959 31 15.5ZM16.0554 11.4428C14.5478 12.0698 11.5348 13.3677 7.01619 15.3364C6.28245 15.6282 5.89808 15.9136 5.86309 16.1927C5.80396 16.6644 6.39467 16.8502 7.19906 17.1031C7.30848 17.1375 7.42186 17.1732 7.53809 17.211C8.32949 17.4682 9.39407 17.7692 9.9475 17.7811C10.4495 17.792 11.0098 17.585 11.6284 17.1602C15.8502 14.3104 18.0296 12.8699 18.1664 12.8389C18.2629 12.817 18.3967 12.7894 18.4873 12.87C18.578 12.9505 18.569 13.1031 18.5594 13.144C18.5009 13.3935 16.1822 15.5492 14.9822 16.6648C14.6081 17.0126 14.3428 17.2593 14.2885 17.3156C14.167 17.4418 14.0432 17.5612 13.9241 17.6759C13.1889 18.3847 12.6376 18.9162 13.9547 19.7842C14.5876 20.2013 15.0941 20.5462 15.5994 20.8903C16.1512 21.2661 16.7016 21.6409 17.4137 22.1077C17.5952 22.2267 17.7685 22.3502 17.9372 22.4705C18.5794 22.9283 19.1564 23.3397 19.8692 23.2741C20.2834 23.236 20.7112 22.8465 20.9285 21.685C21.4419 18.9399 22.4513 12.9922 22.6845 10.5413C22.705 10.3265 22.6793 10.0517 22.6586 9.93108C22.638 9.81044 22.5948 9.63856 22.438 9.51132C22.2523 9.36063 21.9656 9.32885 21.8374 9.33111C21.2544 9.34138 20.36 9.65239 16.0554 11.4428Z" fill="white"/>
</g>
<path d="M182.833 7.34309C181.89 7.99559 180.846 8.49465 179.741 8.82105C179.148 8.15211 178.36 7.67799 177.483 7.4628C176.606 7.24761 175.683 7.30174 174.838 7.61787C173.994 7.93399 173.269 8.49686 172.761 9.23035C172.254 9.96384 171.988 10.8326 172 11.719V12.685C170.269 12.729 168.554 12.3525 167.008 11.589C165.461 10.8255 164.131 9.69877 163.136 8.30907C163.136 8.30907 159.197 17.0029 168.061 20.8669C166.032 22.2173 163.616 22.8944 161.167 22.7989C170.03 27.6288 180.864 22.7989 180.864 11.69C180.863 11.4209 180.836 11.1525 180.785 10.8883C181.79 9.91598 182.499 8.68843 182.833 7.34309Z" stroke="#EEF4FF" stroke-width="2" stroke-linecap="round" stroke-linejoin="round"/>
<path d="M102.814 5.80672C103.139 7.17186 104.376 8.18882 105.854 8.18882C107.578 8.18882 108.977 6.80337 108.977 5.09441C108.977 3.38545 107.578 2 105.854 2C104.346 2 103.088 3.05903 102.795 4.46769C100.269 4.73608 98.2972 6.8585 98.2972 9.43064C98.2972 9.43645 98.2972 9.4408 98.2972 9.4466C95.5505 9.56121 93.0425 10.3359 91.0512 11.5589C90.3119 10.9916 89.3836 10.6536 88.3763 10.6536C85.959 10.6536 84 12.5947 84 14.9898C84 16.7278 85.0307 18.225 86.5198 18.917C86.6647 23.951 92.2006 28 99.0102 28C105.82 28 111.363 23.9467 111.501 18.9083C112.978 18.2119 114 16.7191 114 14.9913C114 12.5961 112.041 10.6551 109.624 10.6551C108.621 10.6551 107.697 10.9902 106.959 11.5531C104.95 10.3214 102.414 9.5467 99.6398 9.4437C99.6398 9.43935 99.6398 9.43645 99.6398 9.43209C99.6398 7.58967 101.022 6.0606 102.814 5.80962V5.80672ZM90.8755 17.7419C90.9488 16.1693 92.0029 14.9623 93.2284 14.9623C94.4539 14.9623 95.3909 16.2375 95.3177 17.8101C95.2445 19.3827 94.3294 19.9542 93.1025 19.9542C91.8755 19.9542 90.8023 19.3145 90.8755 17.7419ZM104.794 14.9623C106.02 14.9623 107.075 16.1693 107.146 17.7419C107.22 19.3145 106.145 19.9542 104.919 19.9542C103.694 19.9542 102.777 19.3841 102.704 17.8101C102.631 16.2375 103.567 14.9623 104.794 14.9623ZM103.335 21.3803C103.565 21.4035 103.712 21.64 103.622 21.8518C102.868 23.6377 101.088 24.8925 99.0102 24.8925C96.9327 24.8925 95.1537 23.6377 94.3982 21.8518C94.3089 21.64 94.4553 21.4035 94.6852 21.3803C96.0322 21.2454 97.489 21.1714 99.0102 21.1714C100.531 21.1714 101.987 21.2454 103.335 21.3803Z" fill="white"/>
<defs>
<clipPath id="clip0_2079_144">
<rect width="31" height="31" fill="white"/>
</clipPath>
</defs>
</svg>
