<svg width="57" height="46" viewBox="0 0 57 46" fill="none" xmlns="http://www.w3.org/2000/svg">
<path d="M42.4466 0C35.7541 10.8962 32.0565 16.33 28.3283 16.33C24.6001 16.33 20.9024 10.8962 14.2405 0C20.9024 10.8962 24.0806 16.6463 22.2164 19.665C20.3523 22.6838 13.4765 23 0.122192 23C13.9655 23 20.8413 23.3162 22.3998 26.6512C23.8666 29.7562 20.6885 35.4775 14.2405 46C20.933 35.1038 24.6306 29.67 28.3588 29.67C32.087 29.67 35.7847 35.1038 42.4772 46C35.3874 34.4138 32.2704 28.6637 34.8985 25.7887C37.221 23.2587 44.0662 23 56.5955 23C42.4772 23 35.6013 22.655 34.2262 19.1187C32.9733 15.9562 36.1514 10.2638 42.4466 0Z" fill="white"/>
</svg>
